
            <svg xmlns="http://www.w3.org/2000/svg" xmlns:cc="http://creativecommons.org/ns#" xmlns:rdf="http://www.w3.org/1999/02/22-rdf-syntax-ns#" version="1.1" width="744.3125" height="93.37503051757812">
              <defs>
                <style type="text/css">svg {
            background-color: #fff; }
          
          .root text,
          .root tspan {
            font: 12px Arial; }
          
          .root path {
            fill-opacity: 0;
            stroke-width: 2px;
            stroke: #000; }
          
          .root circle {
            fill: #6b6659;
            stroke-width: 2px;
            stroke: #000; }
          
          .anchor text, .any-character text {
            fill: #fff; }
          
          .anchor rect, .any-character rect {
            fill: #6b6659; }
          
          .escape text, .charset-escape text, .literal text {
            fill: #000; }
          
          .escape rect, .charset-escape rect {
            fill: #bada55; }
          
          .literal rect {
            fill: #dae9e5; }
          
          .charset .charset-box {
            fill: #cbcbba; }
          
          .subexp .subexp-label tspan,
          .charset .charset-label tspan,
          .match-fragment .repeat-label tspan {
            font-size: 10px; }
          
          .repeat-label {
            cursor: help; }
          
          .subexp .subexp-label tspan,
          .charset .charset-label tspan {
            dominant-baseline: text-after-edge; }
          
          .subexp .subexp-box {
            stroke: #908c83;
            stroke-dasharray: 6,2;
            stroke-width: 2px;
            fill-opacity: 0; }
          
          .quote {
            fill: #908c83; }
          </style>
              </defs>
              <metadata>
                <rdf:rdf>
                  <cc:license rdf:about="http://creativecommons.org/licenses/by/3.0/">
                    <cc:permits rdf:resource="http://creativecommons.org/ns#Reproduction"></cc:permits>
                    <cc:permits rdf:resource="http://creativecommons.org/ns#Distribution"></cc:permits>
                    <cc:requires rdf:resource="http://creativecommons.org/ns#Notice"></cc:requires>
                    <cc:requires rdf:resource="http://creativecommons.org/ns#Attribution"></cc:requires>
                    <cc:permits rdf:resource="http://creativecommons.org/ns#DerivativeWorks"></cc:permits>
                  </cc:license>
                </rdf:rdf>
              </metadata>
            <desc>Created with Snap</desc><g class="root" transform="matrix(1,0,0,1,15,9.9844)"><g class="regexp match" transform="matrix(1,0,0,1,10,0)"><path d="M71.328125,42.2188375H80.812475M118.812475,42.21878835144042H129.3281M161.54685,42.2188375H186.5469M310.562525,42.2188375H335.046875M372.390625,42.21878835144042H382.9063M407.703175,42.2188375H432.7031M601.999975,42.2187864440918H627"></path><g class="match-fragment" transform="matrix(1,0,0,1,0,30.3829)"><g class="label anchor"><rect width="71.328125" height="23.671875"></rect><text x="0" y="0" transform="matrix(1,0,0,1,5,16.8359)"><tspan>Start of line</tspan></text></g></g><g class="match-fragment charset" transform="matrix(1,0,0,1,81.3281,0)"><rect rx="3" ry="3" class="charset-box" transform="matrix(1,0,0,1,0,11.0469)" width="37.484375" height="62.34377670288086"></rect><text x="0" y="0" class="charset-label" transform="matrix(1,0,0,1,0,11.0469)"><tspan>One of:</tspan></text><g transform="matrix(1,0,0,1,5,16.0469)"><g class="literal" transform="matrix(1,0,0,1,0,0)"><g class="label"><rect width="27.484375" height="23.671875" rx="3" ry="3"></rect><text x="0" y="0" transform="matrix(1,0,0,1,5,16.8359)"><tspan class="quote">“</tspan><tspan>R</tspan><tspan class="quote">”</tspan></text></g></g><g class="literal" transform="matrix(1,0,0,1,2.3516,28.6719)"><g class="label"><rect width="22.78125" height="23.671875" rx="3" ry="3"></rect><text x="0" y="0" transform="matrix(1,0,0,1,5,16.8359)"><tspan class="quote">“</tspan><tspan>r</tspan><tspan class="quote">”</tspan></text></g></g></g></g><g class="match-fragment literal" transform="matrix(1,0,0,1,129.3281,30.3829)"><g class="label"><rect width="32.21875" height="23.671875" rx="3" ry="3"></rect><text x="0" y="0" transform="matrix(1,0,0,1,5,16.8359)"><tspan class="quote">“</tspan><tspan>eg</tspan><tspan class="quote">”</tspan></text></g></g><g class="match-fragment" transform="matrix(1,0,0,1,171.5469,20.3829)"><path d="M0,21.8359375q10,0 10,-10v-1.8359375q0,-10 10,-10h114.015625q10,0 10,10v1.8359375q0,10 10,10"></path><g class="subexp regexp match" transform="matrix(1,0,0,1,15,10)"><path d="M38.9375,11.8359375H48.9375"></path><g class="match-fragment literal" transform="matrix(1,0,0,1,0,0)"><g class="label"><rect width="38.9375" height="23.671875" rx="3" ry="3"></rect><text x="0" y="0" transform="matrix(1,0,0,1,5,16.8359)"><tspan class="quote">“</tspan><tspan>ular</tspan><tspan class="quote">”</tspan></text></g></g><g class="match-fragment escape" transform="matrix(1,0,0,1,48.9375,0)"><g class="label"><rect width="75.078125" height="23.671875" rx="3" ry="3"></rect><text x="0" y="0" transform="matrix(1,0,0,1,5,16.8359)"><tspan>white space</tspan></text></g></g></g></g><g class="match-fragment charset" transform="matrix(1,0,0,1,335.5625,0)"><rect rx="3" ry="3" class="charset-box" transform="matrix(1,0,0,1,0,11.0469)" width="36.828125" height="62.34377670288086"></rect><text x="0" y="0" class="charset-label" transform="matrix(1,0,0,1,0,11.0469)"><tspan>One of:</tspan></text><g transform="matrix(1,0,0,1,5,16.0469)"><g class="literal" transform="matrix(1,0,0,1,0,0)"><g class="label"><rect width="26.828125" height="23.671875" rx="3" ry="3"></rect><text x="0" y="0" transform="matrix(1,0,0,1,5,16.8359)"><tspan class="quote">“</tspan><tspan>E</tspan><tspan class="quote">”</tspan></text></g></g><g class="literal" transform="matrix(1,0,0,1,0.6719,28.6719)"><g class="label"><rect width="25.484375" height="23.671875" rx="3" ry="3"></rect><text x="0" y="0" transform="matrix(1,0,0,1,5,16.8359)"><tspan class="quote">“</tspan><tspan>e</tspan><tspan class="quote">”</tspan></text></g></g></g></g><g class="match-fragment literal" transform="matrix(1,0,0,1,382.9063,30.3829)"><g class="label"><rect width="24.796875" height="23.671875" rx="3" ry="3"></rect><text x="0" y="0" transform="matrix(1,0,0,1,5,16.8359)"><tspan class="quote">“</tspan><tspan>x</tspan><tspan class="quote">”</tspan></text></g></g><g class="match-fragment" transform="matrix(1,0,0,1,417.7031,1.0469)"><path d="M0,41.1718864440918q10,0 10,-10v-21.171886444091797q0,-10 10,-10h159.296875q10,0 10,10v21.171886444091797q0,10 10,10"></path><g class="subexp regexp" transform="matrix(1,0,0,1,15,10)"><path d="M10,21.8359375q0,-10 10,-10M159.296875,21.8359375q0,-10 -10,-10M10,40.5078375q0,10 10,10M159.296875,40.5078375q0,10 -10,10M0,31.171886444091797q10,0 10,-10V21.8359375M169.296875,31.171886444091797q-10,0 -10,-10V21.8359375M0,31.171886444091797q10,0 10,10V40.5078375M169.296875,31.171886444091797q-10,0 -10,10V40.5078375"></path><g transform="matrix(1,0,0,1,20,0)" class="regexp-matches"><path d="M0,11.8359375h51.9063M77.390675,11.8359375H129.296875M0,50.5078375h0M114.296875,50.5078375H129.296875"></path><g class="match match-fragment literal" transform="matrix(1,0,0,1,51.9063,0)"><g class="label"><rect width="25.484375" height="23.671875" rx="3" ry="3"></rect><text x="0" y="0" transform="matrix(1,0,0,1,5,16.8359)"><tspan class="quote">“</tspan><tspan>p</tspan><tspan class="quote">”</tspan></text></g></g><g class="match" transform="matrix(1,0,0,1,0,28.6719)"><path d="M64.5,21.8359375H89.5"></path><g class="match-fragment literal" transform="matrix(1,0,0,1,0,10)"><g class="label"><rect width="64.5" height="23.671875" rx="3" ry="3"></rect><text x="0" y="0" transform="matrix(1,0,0,1,5,16.8359)"><tspan class="quote">“</tspan><tspan>pression</tspan><tspan class="quote">”</tspan></text></g></g><g class="match-fragment" transform="matrix(1,0,0,1,74.5,0)"><path d="M0,21.8359375q10,0 10,-10v-1.8359375q0,-10 10,-10h14.796875q10,0 10,10v1.8359375q0,10 10,10"></path><g class="literal" transform="matrix(1,0,0,1,15,10)"><g class="label"><rect width="24.796875" height="23.671875" rx="3" ry="3"></rect><text x="0" y="0" transform="matrix(1,0,0,1,5,16.8359)"><tspan class="quote">“</tspan><tspan>s</tspan><tspan class="quote">”</tspan></text></g></g></g></g></g></g></g><g class="match-fragment" transform="matrix(1,0,0,1,627,30.3829)"><g class="label anchor"><rect width="67.3125" height="23.671875"></rect><text x="0" y="0" transform="matrix(1,0,0,1,5,16.8359)"><tspan>End of line</tspan></text></g></g></g><path d="M10,42.2188375H0M704.3125,42.2188375H714.3125"></path><circle cx="0" cy="42.2188375" r="5"></circle><circle cx="714.3125" cy="42.2188375" r="5"></circle></g></svg>
          